<?xml version="1.0" standalone="no"?>
<!DOCTYPE svg PUBLIC "-//W3C//DTD SVG 20010904//EN"
 "http://www.w3.org/TR/2001/REC-SVG-20010904/DTD/svg10.dtd">
<svg version="1.0" xmlns="http://www.w3.org/2000/svg"
 width="1024.000000pt" height="1024.000000pt" viewBox="0 0 1024.000000 1024.000000"
 preserveAspectRatio="xMidYMid meet">

<g transform="translate(0.000000,1024.000000) scale(0.100000,-0.100000)"
fill="#1F2937" stroke="none">
<path d="M4283 7566 c-60 -19 -106 -50 -155 -105 -117 -131 -283 -536 -373
-911 -20 -85 -40 -161 -44 -169 -4 -9 -60 -25 -147 -43 -223 -45 -538 -144
-661 -206 -52 -27 -83 -66 -83 -104 0 -63 138 -161 345 -245 302 -123 829
-215 1462 -254 221 -13 894 -7 1098 11 497 43 837 104 1140 205 206 69 345
156 360 225 26 117 -196 214 -759 333 l-109 23 -24 90 c-132 499 -201 715
-265 834 -116 218 -225 290 -442 290 -85 0 -124 -6 -241 -37 -131 -34 -150
-37 -290 -37 -158 -1 -179 3 -550 88 -121 28 -198 32 -262 12z m-267 -1096
c220 -61 576 -128 789 -150 184 -18 211 -20 475 -35 320 -19 513 -19 754 0
105 8 191 13 192 12 1 -1 9 -55 17 -121 l14 -119 -44 -19 c-172 -76 -589 -122
-1113 -122 -479 0 -786 39 -1152 145 l-107 31 6 32 c3 17 21 105 39 194 19 90
34 166 34 168 0 8 26 4 96 -16z"/>
<path d="M1585 5500 c-4 -6 -29 -201 -56 -433 -27 -232 -58 -501 -69 -597 -55
-473 -70 -613 -64 -621 7 -12 314 -12 333 0 11 7 27 138 67 533 29 287 53 534
54 547 0 51 -7 67 260 -579 67 -162 127 -301 132 -307 7 -9 45 -13 124 -13
107 0 114 1 128 23 11 16 297 680 378 877 6 14 12 21 14 15 2 -5 24 -246 49
-535 25 -289 50 -535 55 -548 10 -22 11 -22 177 -20 l168 3 2 50 c2 28 -37
401 -85 830 l-88 780 -174 -3 c-96 -1 -179 -7 -184 -12 -5 -5 -105 -233 -222
-507 l-213 -498 -14 35 c-8 19 -101 244 -207 500 -105 256 -195 468 -198 471
-4 4 -86 10 -183 14 -130 5 -179 4 -184 -5z"/>
<path d="M6923 5190 c-184 -20 -353 -117 -458 -265 -97 -136 -130 -260 -122
-459 6 -140 21 -207 71 -307 116 -231 357 -371 611 -355 194 12 342 73 447
185 75 79 117 155 154 276 24 80 27 107 28 240 1 170 -12 232 -71 350 -48 96
-97 159 -168 212 -131 100 -303 143 -492 123z m227 -322 c239 -110 297 -491
105 -683 -54 -54 -107 -82 -178 -93 -185 -29 -353 80 -417 269 -31 90 -25 227
14 313 49 109 122 177 229 212 65 21 181 13 247 -18z"/>
<path d="M7032 4629 c-68 -20 -132 -111 -132 -189 0 -75 54 -160 117 -186 42
-18 125 -18 166 0 39 17 82 61 97 101 17 44 14 139 -6 180 -40 84 -140 123
-242 94z"/>
<path d="M3968 5179 c-122 -18 -311 -82 -338 -114 -18 -21 79 -288 100 -279
142 63 197 77 311 82 177 7 260 -24 300 -112 19 -41 26 -136 11 -136 -5 0 -53
7 -108 15 -192 29 -329 13 -469 -55 -113 -55 -176 -114 -222 -208 -36 -73 -38
-80 -37 -171 1 -127 26 -195 100 -269 96 -95 231 -140 388 -128 128 11 257 66
325 140 14 14 28 26 32 26 5 0 9 -28 11 -62 l3 -63 169 -3 c93 -1 173 1 176 5
4 5 4 224 0 488 -6 451 -8 484 -28 544 -43 132 -130 218 -268 266 -117 41
-312 55 -456 34z m335 -775 l67 -6 0 -52 c0 -109 -39 -171 -142 -226 -53 -29
-76 -35 -145 -38 -70 -4 -88 -1 -128 18 -60 29 -95 80 -95 140 0 64 29 106 94
136 90 41 155 46 349 28z"/>
<path d="M5360 5174 c-300 -64 -487 -354 -467 -722 13 -247 123 -435 316 -536
98 -51 184 -69 306 -63 124 6 185 27 283 102 l72 55 0 -72 c0 -89 -13 -140
-51 -194 -61 -88 -176 -134 -339 -134 -137 0 -270 40 -358 106 -18 14 -35 24
-38 22 -2 -2 -31 -62 -65 -133 -44 -94 -59 -134 -52 -145 17 -27 173 -98 267
-121 132 -33 383 -33 505 -1 208 55 350 163 427 327 70 147 68 122 72 832 l3
642 -23 6 c-13 3 -88 4 -168 3 l-145 -3 -3 -63 -3 -63 -47 42 c-125 110 -310
153 -492 113z m302 -294 c57 -16 130 -70 166 -124 79 -118 95 -301 37 -419
-34 -68 -107 -140 -172 -169 -66 -29 -191 -29 -258 1 -165 72 -244 294 -178
496 36 112 116 191 218 216 45 11 145 10 187 -1z"/>
<path d="M8225 5164 c-316 -70 -502 -350 -482 -727 16 -303 154 -520 380 -596
96 -33 234 -46 333 -32 347 49 557 291 581 671 20 322 -172 596 -472 676 -88
23 -255 27 -340 8z m270 -298 c192 -88 280 -331 201 -555 -50 -139 -189 -231
-351 -231 -201 0 -327 131 -342 355 -12 179 58 344 177 418 85 53 216 58 315
13z"/>
<path d="M8206 4626 c-49 -19 -102 -70 -117 -114 -6 -19 -9 -62 -7 -97 3 -50
10 -70 32 -100 76 -99 237 -98 312 1 25 32 29 48 32 113 3 70 1 80 -26 122
-47 73 -143 105 -226 75z"/>
</g>
</svg>
